<svg xmlns="http://www.w3.org/2000/svg" version="1.2" baseProfile="tiny" viewBox="0 0 360 640">
<defs><linearGradient id="body" x1="0" y1="0" x2="1" y2="1"><stop offset="0" stop-color="#e6e1cc"/><stop offset=".5" stop-color="#c8c2a9"/><stop offset="1" stop-color="#938d7b"/></linearGradient><linearGradient id="rim" x1="0" y1="0" x2="0" y2="1"><stop stop-color="#777866"/><stop offset=".5" stop-color="#3e4037"/><stop offset="1" stop-color="#20221e"/></linearGradient><linearGradient id="olive" x1="0" y1="0" x2="0" y2="1"><stop stop-color="#bac277"/><stop offset=".5" stop-color="#839149"/><stop offset="1" stop-color="#455126"/></linearGradient><radialGradient id="button" cx="35%" cy="25%" r="70%"><stop stop-color="#d24860"/><stop offset=".65" stop-color="#a01f39"/><stop offset="1" stop-color="#5f1023"/></radialGradient></defs>
<rect x="48" y="14" width="264" height="612" rx="30" fill="#77736a"/><rect x="52" y="12" width="256" height="608" rx="28" fill="url(#body)" stroke="#6e6a5d" stroke-width="3"/><path d="M67 46 Q180 24 293 46 L293 58 Q180 39 67 58Z" fill="#f3eedb" opacity=".75"/>
<rect x="68" y="73" width="224" height="221" rx="13" fill="#77766e" stroke="#858070" stroke-width="3"/><rect x="78" y="86" width="204" height="184" rx="5" fill="url(#rim)"/><rect x="91" y="101" width="178" height="150" rx="3" fill="url(#olive)" stroke="#c6ce8b" stroke-width="3"/><path d="M101 120H259M101 143H259M101 166H259M101 189H259M101 212H259" stroke="#73803e" stroke-width="2" opacity=".45"/>
<text x="91" y="79" fill="#4d4b43" font-family="Arial, Helvetica, sans-serif" font-size="10" font-weight="bold">DOT MATRIX WITH STEREO SOUND</text><text x="180" y="180" text-anchor="middle" fill="#405020" font-family="Arial, Helvetica, sans-serif" font-size="18" font-weight="bold">POCKET</text><text x="180" y="201" text-anchor="middle" fill="#405020" font-family="Arial, Helvetica, sans-serif" font-size="13">PARTNER</text>
<circle cx="120" cy="407" r="57" fill="#a9a28d" opacity=".45"/><rect x="106" y="351" width="28" height="112" rx="6" fill="#55564f" stroke="#34352f" stroke-width="3"/><rect x="64" y="393" width="112" height="28" rx="6" fill="#55564f" stroke="#34352f" stroke-width="3"/><rect x="111" y="356" width="18" height="102" rx="4" fill="#777972"/><rect x="69" y="398" width="102" height="18" rx="4" fill="#777972"/>
<circle cx="225" cy="438" r="31" fill="#867f72" opacity=".5"/><circle cx="270" cy="394" r="31" fill="#867f72" opacity=".5"/><circle cx="225" cy="438" r="25" fill="url(#button)" stroke="#701229" stroke-width="3"/><circle cx="270" cy="394" r="25" fill="url(#button)" stroke="#701229" stroke-width="3"/><circle cx="217" cy="429" r="7" fill="#f38a9a" opacity=".5"/><circle cx="262" cy="385" r="7" fill="#f38a9a" opacity=".5"/><text x="222" y="477" fill="#6b2541" font-family="Arial, Helvetica, sans-serif" font-size="14" font-weight="bold">B</text><text x="268" y="353" fill="#6b2541" font-family="Arial, Helvetica, sans-serif" font-size="14" font-weight="bold">A</text>
<g transform="rotate(-24 180 522)"><rect x="130" y="508" width="45" height="15" rx="8" fill="#6b6970"/><rect x="188" y="508" width="45" height="15" rx="8" fill="#6b6970"/><rect x="133" y="511" width="39" height="5" rx="2" fill="#a7a5aa"/><rect x="191" y="511" width="39" height="5" rx="2" fill="#a7a5aa"/></g><text x="119" y="551" fill="#5e5a59" font-family="Arial, Helvetica, sans-serif" font-size="10" font-weight="bold">SELECT</text><text x="210" y="511" fill="#5e5a59" font-family="Arial, Helvetica, sans-serif" font-size="10" font-weight="bold">START</text><path d="M91 575Q180 601 269 575" fill="none" stroke="#9d9787" stroke-width="3"/><text x="180" y="590" text-anchor="middle" fill="#434447" font-family="Arial, Helvetica, sans-serif" font-size="18" font-style="italic" font-weight="bold">POCKETPARTNER</text>
</svg>
