<svg xmlns="http://www.w3.org/2000/svg" viewBox="0 0 1000 1000" role="img" aria-label="Nintendo DS controller"><defs><linearGradient id="s" y2="1"><stop stop-color="#e2e5e9"/><stop offset="1" stop-color="#8c949d"/></linearGradient><linearGradient id="t" y2="1"><stop stop-color="#35536d"/><stop offset="1" stop-color="#0b1420"/></linearGradient></defs><path d="M75 34q-15 0-20 24l-10 46h245l-4-42q-4-28-31-28Z" fill="#717984" stroke="#3e4650" stroke-width="7"/><path d="M925 34q15 0 20 24l10 46H710l4-42q4-28 31-28Z" fill="#717984" stroke="#3e4650" stroke-width="7"/><g fill="#f3f5f5" font-family="Arial, sans-serif" font-size="19" font-weight="bold" text-anchor="middle"><text x="180" y="78">L</text><text x="820" y="78">R</text></g><rect x="80" y="108" width="840" height="295" rx="30" fill="url(#s)" stroke="#545c65" stroke-width="8"/><rect x="222" y="144" width="556" height="223" rx="16" fill="#303740" stroke="#11161b" stroke-width="8"/><rect x="247" y="168" width="506" height="175" rx="5" fill="url(#t)"/><rect x="400" y="360" width="200" height="30" rx="12" fill="#555e68" stroke="#252b31" stroke-width="6"/><path d="M400 375h200" stroke="#c2c8cd" stroke-width="4"/><rect x="55" y="405" width="890" height="550" rx="42" fill="url(#s)" stroke="#545c65" stroke-width="8"/><rect x="250" y="470" width="500" height="280" rx="16" fill="#202a31" stroke="#56616b" stroke-width="8"/><rect x="270" y="490" width="460" height="240" rx="7" fill="#aec7c9"/><path d="M160 610h90v60h70v60h-70v60h-90v-60H80v-60h80Z" fill="#4d555c" stroke="#2e353b" stroke-width="7" stroke-linejoin="round"/><g fill="#555d65" stroke="#30373d" stroke-width="6"><circle cx="700" cy="650" r="40"/><circle cx="790" cy="720" r="40"/><circle cx="700" cy="790" r="40"/><circle cx="610" cy="720" r="40"/></g><g fill="#f4f5f5" font-family="Arial, sans-serif" font-size="21" font-weight="bold" text-anchor="middle"><text x="700" y="657">X</text><text x="790" y="727">A</text><text x="700" y="797">B</text><text x="610" y="727">Y</text></g><circle cx="500" cy="810" r="17" fill="#394149" stroke="#1d2429" stroke-width="5"/><circle cx="500" cy="803" r="4" fill="#d7dde0"/><text x="500" y="850" text-anchor="middle" fill="#4d5660" font-family="Arial, sans-serif" font-size="13">MIC</text><g fill="#737b84" stroke="#4a5159" stroke-width="5"><rect x="360" y="880" width="120" height="40" rx="20"/><rect x="520" y="880" width="120" height="40" rx="20"/></g><g fill="#4b535c" font-family="Arial, sans-serif" font-size="14" font-weight="bold" text-anchor="middle"><text x="420" y="943">SELECT</text><text x="580" y="943">START</text></g></svg>
