<svg xmlns="http://www.w3.org/2000/svg" version="1.2" baseProfile="tiny" viewBox="0 0 600 686">
<defs><linearGradient id="shell" x1="0" y1="0" x2="1" y2="1"><stop stop-color="#f2f4f4"/><stop offset="1" stop-color="#68717c"/></linearGradient><linearGradient id="bezel" x1="0" y1="0" x2="0" y2="1"><stop stop-color="#303a45"/><stop offset="1" stop-color="#101720"/></linearGradient><radialGradient id="button"><stop stop-color="#fff"/><stop offset="1" stop-color="#65707a"/></radialGradient></defs>
<rect x="6" y="8" width="588" height="288" rx="20" fill="#303742"/><rect x="10" y="4" width="580" height="290" rx="18" fill="url(#shell)" stroke="#eef4f8" stroke-width="3"/><rect x="120" y="8" width="360" height="273" rx="8" fill="#111821" stroke="#dbe3e9" stroke-width="2"/><rect id="screen_top" x="126" y="14" width="348" height="261" fill="#141920"/>
<rect x="6" y="294" width="588" height="14" rx="6" fill="#202832"/><rect x="30" y="297" width="540" height="8" rx="4" fill="#6d7883"/>
<rect x="6" y="312" width="588" height="366" rx="24" fill="#303742"/><rect x="10" y="308" width="580" height="370" rx="22" fill="url(#shell)" stroke="#eef4f8" stroke-width="3"/>
<rect x="40" y="312" width="110" height="20" rx="8" fill="url(#bezel)"/><rect x="450" y="312" width="110" height="20" rx="8" fill="url(#bezel)"/><text x="95" y="327" text-anchor="middle" font-family="Arial" font-size="12" font-weight="bold" fill="#fff">L</text><text x="505" y="327" text-anchor="middle" font-family="Arial" font-size="12" font-weight="bold" fill="#fff">R</text>
<rect x="134" y="338" width="332" height="252" rx="8" fill="#141b25" stroke="#e0e8ed" stroke-width="2"/><rect id="touchscreen" x="140" y="344" width="320" height="240" fill="#141920"/>
<circle cx="66" cy="470" r="46" fill="#8a939c"/><rect x="55" y="428" width="22" height="84" rx="4" fill="#343b44"/><rect x="24" y="459" width="84" height="22" rx="4" fill="#343b44"/><rect x="60" y="433" width="12" height="74" rx="3" fill="#9da6ad"/><rect x="29" y="464" width="74" height="12" rx="3" fill="#9da6ad"/>
<circle cx="566" cy="470" r="17" fill="url(#button)" stroke="#4d5660" stroke-width="2"/><circle cx="532" cy="504" r="17" fill="url(#button)" stroke="#4d5660" stroke-width="2"/><circle cx="498" cy="470" r="17" fill="url(#button)" stroke="#4d5660" stroke-width="2"/><circle cx="532" cy="436" r="17" fill="url(#button)" stroke="#4d5660" stroke-width="2"/><text x="566" y="475" text-anchor="middle" font-family="Arial" font-size="12" font-weight="bold">A</text><text x="532" y="509" text-anchor="middle" font-family="Arial" font-size="12" font-weight="bold">B</text><text x="498" y="475" text-anchor="middle" font-family="Arial" font-size="12" font-weight="bold">Y</text><text x="532" y="441" text-anchor="middle" font-family="Arial" font-size="12" font-weight="bold">X</text>
<ellipse cx="250" cy="608" rx="32" ry="10" fill="#3d4650"/><ellipse cx="350" cy="608" rx="32" ry="10" fill="#3d4650"/><ellipse cx="250" cy="606" rx="23" ry="3" fill="#e2e8eb"/><ellipse cx="350" cy="606" rx="23" ry="3" fill="#e2e8eb"/><text x="250" y="631" text-anchor="middle" font-family="Arial" font-size="10" font-weight="bold">SELECT</text><text x="350" y="631" text-anchor="middle" font-family="Arial" font-size="10" font-weight="bold">START</text><circle cx="300" cy="622" r="7" fill="#343c45" stroke="#f5f8fa" stroke-width="2"/>
</svg>
